<svg width="47" height="47" viewBox="0 0 47 47" fill="none" xmlns="http://www.w3.org/2000/svg">
<rect width="47" height="47" rx="23.5" fill="#D01000"/>
<g clip-path="url(#clip0_1485_3316)">
<path d="M35.6094 23.5C35.6094 30.1878 30.1878 35.6094 23.5 35.6094C16.8122 35.6094 11.3906 30.1878 11.3906 23.5C11.3906 16.8122 16.8122 11.3906 23.5 11.3906C30.1878 11.3906 35.6094 16.8122 35.6094 23.5ZM22.0993 29.9118L31.0837 20.9274C31.3888 20.6224 31.3888 20.1277 31.0837 19.8226L29.9789 18.7178C29.6738 18.4126 29.1791 18.4126 28.874 18.7178L21.5469 26.0448L18.126 22.624C17.8209 22.3189 17.3263 22.3189 17.0211 22.624L15.9163 23.7288C15.6112 24.0339 15.6112 24.5286 15.9163 24.8336L20.9944 29.9118C21.2996 30.2169 21.7942 30.2169 22.0993 29.9118Z" fill="white"/>
</g>
<defs>
<clipPath id="clip0_1485_3316">
<rect width="25" height="25" fill="white" transform="translate(11 11)"/>
</clipPath>
</defs>
</svg>
