<svg width="21" height="20" viewBox="0 0 21 20" fill="none" xmlns="http://www.w3.org/2000/svg">
<path d="M14.25 10H6.75V12.5H14.25V10ZM17.7266 4.10156L13.9023 0.273438C13.7266 0.0976562 13.4883 0 13.2383 0H13V5H18V4.76172C18 4.51563 17.9023 4.27734 17.7266 4.10156ZM11.75 5.3125V0H3.9375C3.41797 0 3 0.417969 3 0.9375V19.0625C3 19.582 3.41797 20 3.9375 20H17.0625C17.582 20 18 19.582 18 19.0625V6.25H12.6875C12.1719 6.25 11.75 5.82812 11.75 5.3125ZM5.5 2.8125C5.5 2.63984 5.63984 2.5 5.8125 2.5H8.9375C9.11016 2.5 9.25 2.63984 9.25 2.8125V3.4375C9.25 3.61016 9.11016 3.75 8.9375 3.75H5.8125C5.63984 3.75 5.5 3.61016 5.5 3.4375V2.8125ZM5.5 5.3125C5.5 5.13984 5.63984 5 5.8125 5H8.9375C9.11016 5 9.25 5.13984 9.25 5.3125V5.9375C9.25 6.11016 9.11016 6.25 8.9375 6.25H5.8125C5.63984 6.25 5.5 6.11016 5.5 5.9375V5.3125ZM15.5 17.1875C15.5 17.3602 15.3602 17.5 15.1875 17.5H12.0625C11.8898 17.5 11.75 17.3602 11.75 17.1875V16.5625C11.75 16.3898 11.8898 16.25 12.0625 16.25H15.1875C15.3602 16.25 15.5 16.3898 15.5 16.5625V17.1875ZM15.5 9.375V13.125C15.5 13.4703 15.2203 13.75 14.875 13.75H6.125C5.77969 13.75 5.5 13.4703 5.5 13.125V9.375C5.5 9.02969 5.77969 8.75 6.125 8.75H14.875C15.2203 8.75 15.5 9.02969 15.5 9.375Z" fill="white"/>
</svg>
