<svg width="21" height="20" viewBox="0 0 21 20" fill="none" xmlns="http://www.w3.org/2000/svg">
<g clip-path="url(#clip0_2139_453)">
<path d="M6.33332 8.4375V11.5625C6.33332 12.0803 5.91359 12.5 5.39582 12.5H1.4375C0.919727 12.5 0.5 12.0803 0.5 11.5625V8.4375C0.5 7.91973 0.919727 7.5 1.4375 7.5H5.39582C5.91359 7.5 6.33332 7.91973 6.33332 8.4375ZM0.5 14.6875V17.8125C0.5 18.3303 0.919727 18.75 1.4375 18.75H5.39582C5.91359 18.75 6.33332 18.3303 6.33332 17.8125V14.6875C6.33332 14.1697 5.91359 13.75 5.39582 13.75H1.4375C0.919727 13.75 0.5 14.1697 0.5 14.6875ZM5.39582 1.25H1.4375C0.919727 1.25 0.5 1.66973 0.5 2.1875V5.3125C0.5 5.83027 0.919727 6.25 1.4375 6.25H5.39582C5.91359 6.25 6.33332 5.83027 6.33332 5.3125V2.1875C6.33332 1.66973 5.91359 1.25 5.39582 1.25ZM8.52082 18.75H19.5625C20.0803 18.75 20.5 18.3303 20.5 17.8125V14.6875C20.5 14.1697 20.0803 13.75 19.5625 13.75H8.52082C8.00305 13.75 7.58332 14.1697 7.58332 14.6875V17.8125C7.58332 18.3303 8.00305 18.75 8.52082 18.75ZM7.58332 2.1875V5.3125C7.58332 5.83027 8.00305 6.25 8.52082 6.25H19.5625C20.0803 6.25 20.5 5.83027 20.5 5.3125V2.1875C20.5 1.66973 20.0803 1.25 19.5625 1.25H8.52082C8.00305 1.25 7.58332 1.66973 7.58332 2.1875ZM8.52082 12.5H19.5625C20.0803 12.5 20.5 12.0803 20.5 11.5625V8.4375C20.5 7.91973 20.0803 7.5 19.5625 7.5H8.52082C8.00305 7.5 7.58332 7.91973 7.58332 8.4375V11.5625C7.58332 12.0803 8.00305 12.5 8.52082 12.5Z" fill="white"/>
</g>
<defs>
<clipPath id="clip0_2139_453">
<rect width="20" height="20" fill="white" transform="translate(0.5)"/>
</clipPath>
</defs>
</svg>
