<svg width="25" height="25" viewBox="0 0 25 25" fill="none" xmlns="http://www.w3.org/2000/svg">
<g clip-path="url(#clip0_1309_1291)">
<path d="M14.4531 18.75H10.5469C9.89746 18.75 9.375 18.2275 9.375 17.5781V9.375H5.09277C4.22363 9.375 3.78906 8.3252 4.4043 7.70996L11.8311 0.27832C12.1973 -0.0878906 12.7979 -0.0878906 13.1641 0.27832L20.5957 7.70996C21.2109 8.3252 20.7764 9.375 19.9072 9.375H15.625V17.5781C15.625 18.2275 15.1025 18.75 14.4531 18.75ZM25 18.3594V23.8281C25 24.4775 24.4775 25 23.8281 25H1.17188C0.522461 25 0 24.4775 0 23.8281V18.3594C0 17.71 0.522461 17.1875 1.17188 17.1875H7.8125V17.5781C7.8125 19.0869 9.03809 20.3125 10.5469 20.3125H14.4531C15.9619 20.3125 17.1875 19.0869 17.1875 17.5781V17.1875H23.8281C24.4775 17.1875 25 17.71 25 18.3594ZM18.9453 22.6562C18.9453 22.1191 18.5059 21.6797 17.9688 21.6797C17.4316 21.6797 16.9922 22.1191 16.9922 22.6562C16.9922 23.1934 17.4316 23.6328 17.9688 23.6328C18.5059 23.6328 18.9453 23.1934 18.9453 22.6562ZM22.0703 22.6562C22.0703 22.1191 21.6309 21.6797 21.0938 21.6797C20.5566 21.6797 20.1172 22.1191 20.1172 22.6562C20.1172 23.1934 20.5566 23.6328 21.0938 23.6328C21.6309 23.6328 22.0703 23.1934 22.0703 22.6562Z" fill="white"/>
</g>
<defs>
<clipPath id="clip0_1309_1291">
<rect width="25" height="25" fill="white"/>
</clipPath>
</defs>
</svg>
