<svg width="47" height="47" viewBox="0 0 47 47" fill="none" xmlns="http://www.w3.org/2000/svg">
<rect width="47" height="47" rx="23.5" fill="#D01000"/>
<g clip-path="url(#clip0_1485_3303)">
<path d="M31.8375 25.0736L33.4789 17.8514C33.5974 17.3299 33.2011 16.8333 32.6663 16.8333H19.0281L18.7098 15.2774C18.6305 14.8896 18.2892 14.6111 17.8934 14.6111H14.3333C13.8731 14.6111 13.5 14.9842 13.5 15.4444V16C13.5 16.4602 13.8731 16.8333 14.3333 16.8333H16.7598L19.199 28.7582C18.6155 29.0938 18.2222 29.723 18.2222 30.4444C18.2222 31.5183 19.0928 32.3889 20.1667 32.3889C21.2406 32.3889 22.1111 31.5183 22.1111 30.4444C22.1111 29.9002 21.8873 29.4085 21.5269 29.0556H28.8064C28.4461 29.4085 28.2222 29.9002 28.2222 30.4444C28.2222 31.5183 29.0928 32.3889 30.1667 32.3889C31.2406 32.3889 32.1111 31.5183 32.1111 30.4444C32.1111 29.6746 31.6636 29.0093 31.0146 28.6943L31.2062 27.8514C31.3247 27.3299 30.9283 26.8333 30.3936 26.8333H21.0735L20.8463 25.7222H31.0249C31.414 25.7222 31.7513 25.453 31.8375 25.0736Z" fill="white"/>
</g>
<defs>
<clipPath id="clip0_1485_3303">
<rect width="20" height="20" fill="white" transform="translate(13.5 13.5)"/>
</clipPath>
</defs>
</svg>
